<svg width="210" height="38" viewBox="0 0 210 38" fill="none" xmlns="http://www.w3.org/2000/svg">
<mask id="path-1-outside-1_1_2" maskUnits="userSpaceOnUse" x="-0.375" y="0" width="210" height="38" fill="black">
<rect fill="white" x="-0.375" width="210" height="38"/>
<path d="M11.9044 34.5735V8.0147H3.05147V3.58823H29.6103V8.0147H20.7574V34.5735H11.9044ZM38.4632 34.5735V30.1471H34.0368V16.8676H38.4632V12.4412H60.5956V16.8676H65.0221V25.7206H42.8897V30.1471H60.5956V34.5735H38.4632ZM42.8897 21.2941H56.1691V16.8676H42.8897V21.2941ZM82.7279 34.5735V16.8676H73.875V12.4412H82.7279V3.58823H91.5809V12.4412H100.434V16.8676H91.5809V34.5735H82.7279ZM118.14 16.8676H122.566V21.2941H118.14V34.5735H109.287V12.4412H118.14V16.8676ZM135.846 12.4412V16.8676H122.566V12.4412H135.846ZM153.551 8.0147V3.58823H162.404V8.0147H153.551ZM144.699 34.5735V30.1471H153.551V16.8676H149.125V12.4412H162.404V30.1471H171.257V34.5735H144.699ZM175.684 34.5735V30.1471H197.816V25.7206H180.11V21.2941H175.684V16.8676H180.11V12.4412H202.243V16.8676H184.537V21.2941H202.243V25.7206H206.669V30.1471H202.243V34.5735H175.684Z"/>
</mask>
<path d="M11.9044 34.5735V8.0147H3.05147V3.58823H29.6103V8.0147H20.7574V34.5735H11.9044ZM38.4632 34.5735V30.1471H34.0368V16.8676H38.4632V12.4412H60.5956V16.8676H65.0221V25.7206H42.8897V30.1471H60.5956V34.5735H38.4632ZM42.8897 21.2941H56.1691V16.8676H42.8897V21.2941ZM82.7279 34.5735V16.8676H73.875V12.4412H82.7279V3.58823H91.5809V12.4412H100.434V16.8676H91.5809V34.5735H82.7279ZM118.14 16.8676H122.566V21.2941H118.14V34.5735H109.287V12.4412H118.14V16.8676ZM135.846 12.4412V16.8676H122.566V12.4412H135.846ZM153.551 8.0147V3.58823H162.404V8.0147H153.551ZM144.699 34.5735V30.1471H153.551V16.8676H149.125V12.4412H162.404V30.1471H171.257V34.5735H144.699ZM175.684 34.5735V30.1471H197.816V25.7206H180.11V21.2941H175.684V16.8676H180.11V12.4412H202.243V16.8676H184.537V21.2941H202.243V25.7206H206.669V30.1471H202.243V34.5735H175.684Z" fill="white"/>
<path d="M11.9044 34.5735H8.95343V37.5245H11.9044V34.5735ZM11.9044 8.0147H14.8554V5.06372H11.9044V8.0147ZM3.05147 8.0147H0.10049V10.9657H3.05147V8.0147ZM3.05147 3.58823V0.637253H0.10049V3.58823H3.05147ZM29.6103 3.58823H32.5613V0.637253H29.6103V3.58823ZM29.6103 8.0147V10.9657H32.5613V8.0147H29.6103ZM20.7574 8.0147V5.06372H17.8064V8.0147H20.7574ZM20.7574 34.5735V37.5245H23.7083V34.5735H20.7574ZM11.9044 34.5735H14.8554V8.0147H11.9044H8.95343V34.5735H11.9044ZM11.9044 8.0147V5.06372H3.05147V8.0147V10.9657H11.9044V8.0147ZM3.05147 8.0147H6.00245V3.58823H3.05147H0.10049V8.0147H3.05147ZM3.05147 3.58823V6.53921H29.6103V3.58823V0.637253H3.05147V3.58823ZM29.6103 3.58823H26.6593V8.0147H29.6103H32.5613V3.58823H29.6103ZM29.6103 8.0147V5.06372H20.7574V8.0147V10.9657H29.6103V8.0147ZM20.7574 8.0147H17.8064V34.5735H20.7574H23.7083V8.0147H20.7574ZM20.7574 34.5735V31.6225H11.9044V34.5735V37.5245H20.7574V34.5735ZM38.4632 34.5735H35.5123V37.5245H38.4632V34.5735ZM38.4632 30.1471H41.4142V27.1961H38.4632V30.1471ZM34.0368 30.1471H31.0858V33.098H34.0368V30.1471ZM34.0368 16.8676V13.9167H31.0858V16.8676H34.0368ZM38.4632 16.8676V19.8186H41.4142V16.8676H38.4632ZM38.4632 12.4412V9.49019H35.5123V12.4412H38.4632ZM60.5956 12.4412H63.5466V9.49019H60.5956V12.4412ZM60.5956 16.8676H57.6446V19.8186H60.5956V16.8676ZM65.0221 16.8676H67.973V13.9167H65.0221V16.8676ZM65.0221 25.7206V28.6716H67.973V25.7206H65.0221ZM42.8897 25.7206V22.7696H39.9387V25.7206H42.8897ZM42.8897 30.1471H39.9387V33.098H42.8897V30.1471ZM60.5956 30.1471H63.5466V27.1961H60.5956V30.1471ZM60.5956 34.5735V37.5245H63.5466V34.5735H60.5956ZM42.8897 21.2941H39.9387V24.2451H42.8897V21.2941ZM56.1691 21.2941V24.2451H59.1201V21.2941H56.1691ZM56.1691 16.8676H59.1201V13.9167H56.1691V16.8676ZM42.8897 16.8676V13.9167H39.9387V16.8676H42.8897ZM38.4632 34.5735H41.4142V30.1471H38.4632H35.5123V34.5735H38.4632ZM38.4632 30.1471V27.1961H34.0368V30.1471V33.098H38.4632V30.1471ZM34.0368 30.1471H36.9877V16.8676H34.0368H31.0858V30.1471H34.0368ZM34.0368 16.8676V19.8186H38.4632V16.8676V13.9167H34.0368V16.8676ZM38.4632 16.8676H41.4142V12.4412H38.4632H35.5123V16.8676H38.4632ZM38.4632 12.4412V15.3922H60.5956V12.4412V9.49019H38.4632V12.4412ZM60.5956 12.4412H57.6446V16.8676H60.5956H63.5466V12.4412H60.5956ZM60.5956 16.8676V19.8186H65.0221V16.8676V13.9167H60.5956V16.8676ZM65.0221 16.8676H62.0711V25.7206H65.0221H67.973V16.8676H65.0221ZM65.0221 25.7206V22.7696H42.8897V25.7206V28.6716H65.0221V25.7206ZM42.8897 25.7206H39.9387V30.1471H42.8897H45.8407V25.7206H42.8897ZM42.8897 30.1471V33.098H60.5956V30.1471V27.1961H42.8897V30.1471ZM60.5956 30.1471H57.6446V34.5735H60.5956H63.5466V30.1471H60.5956ZM60.5956 34.5735V31.6225H38.4632V34.5735V37.5245H60.5956V34.5735ZM42.8897 21.2941V24.2451H56.1691V21.2941V18.3431H42.8897V21.2941ZM56.1691 21.2941H59.1201V16.8676H56.1691H53.2181V21.2941H56.1691ZM56.1691 16.8676V13.9167H42.8897V16.8676V19.8186H56.1691V16.8676ZM42.8897 16.8676H39.9387V21.2941H42.8897H45.8407V16.8676H42.8897ZM82.7279 34.5735H79.777V37.5245H82.7279V34.5735ZM82.7279 16.8676H85.6789V13.9167H82.7279V16.8676ZM73.875 16.8676H70.924V19.8186H73.875V16.8676ZM73.875 12.4412V9.49019H70.924V12.4412H73.875ZM82.7279 12.4412V15.3922H85.6789V12.4412H82.7279ZM82.7279 3.58823V0.637253H79.777V3.58823H82.7279ZM91.5809 3.58823H94.5319V0.637253H91.5809V3.58823ZM91.5809 12.4412H88.6299V15.3922H91.5809V12.4412ZM100.434 12.4412H103.385V9.49019H100.434V12.4412ZM100.434 16.8676V19.8186H103.385V16.8676H100.434ZM91.5809 16.8676V13.9167H88.6299V16.8676H91.5809ZM91.5809 34.5735V37.5245H94.5319V34.5735H91.5809ZM82.7279 34.5735H85.6789V16.8676H82.7279H79.777V34.5735H82.7279ZM82.7279 16.8676V13.9167H73.875V16.8676V19.8186H82.7279V16.8676ZM73.875 16.8676H76.826V12.4412H73.875H70.924V16.8676H73.875ZM73.875 12.4412V15.3922H82.7279V12.4412V9.49019H73.875V12.4412ZM82.7279 12.4412H85.6789V3.58823H82.7279H79.777V12.4412H82.7279ZM82.7279 3.58823V6.53921H91.5809V3.58823V0.637253H82.7279V3.58823ZM91.5809 3.58823H88.6299V12.4412H91.5809H94.5319V3.58823H91.5809ZM91.5809 12.4412V15.3922H100.434V12.4412V9.49019H91.5809V12.4412ZM100.434 12.4412H97.4828V16.8676H100.434H103.385V12.4412H100.434ZM100.434 16.8676V13.9167H91.5809V16.8676V19.8186H100.434V16.8676ZM91.5809 16.8676H88.6299V34.5735H91.5809H94.5319V16.8676H91.5809ZM91.5809 34.5735V31.6225H82.7279V34.5735V37.5245H91.5809V34.5735ZM118.14 16.8676H115.189V19.8186H118.14V16.8676ZM122.566 16.8676H125.517V13.9167H122.566V16.8676ZM122.566 21.2941V24.2451H125.517V21.2941H122.566ZM118.14 21.2941V18.3431H115.189V21.2941H118.14ZM118.14 34.5735V37.5245H121.091V34.5735H118.14ZM109.287 34.5735H106.336V37.5245H109.287V34.5735ZM109.287 12.4412V9.49019H106.336V12.4412H109.287ZM118.14 12.4412H121.091V9.49019H118.14V12.4412ZM135.846 12.4412H138.797V9.49019H135.846V12.4412ZM135.846 16.8676V19.8186H138.797V16.8676H135.846ZM122.566 16.8676H119.615V19.8186H122.566V16.8676ZM122.566 12.4412V9.49019H119.615V12.4412H122.566ZM118.14 16.8676V19.8186H122.566V16.8676V13.9167H118.14V16.8676ZM122.566 16.8676H119.615V21.2941H122.566H125.517V16.8676H122.566ZM122.566 21.2941V18.3431H118.14V21.2941V24.2451H122.566V21.2941ZM118.14 21.2941H115.189V34.5735H118.14H121.091V21.2941H118.14ZM118.14 34.5735V31.6225H109.287V34.5735V37.5245H118.14V34.5735ZM109.287 34.5735H112.238V12.4412H109.287H106.336V34.5735H109.287ZM109.287 12.4412V15.3922H118.14V12.4412V9.49019H109.287V12.4412ZM118.14 12.4412H115.189V16.8676H118.14H121.091V12.4412H118.14ZM135.846 12.4412H132.895V16.8676H135.846H138.797V12.4412H135.846ZM135.846 16.8676V13.9167H122.566V16.8676V19.8186H135.846V16.8676ZM122.566 16.8676H125.517V12.4412H122.566H119.615V16.8676H122.566ZM122.566 12.4412V15.3922H135.846V12.4412V9.49019H122.566V12.4412ZM153.551 8.0147H150.6V10.9657H153.551V8.0147ZM153.551 3.58823V0.637253H150.6V3.58823H153.551ZM162.404 3.58823H165.355V0.637253H162.404V3.58823ZM162.404 8.0147V10.9657H165.355V8.0147H162.404ZM144.699 34.5735H141.748V37.5245H144.699V34.5735ZM144.699 30.1471V27.1961H141.748V30.1471H144.699ZM153.551 30.1471V33.098H156.502V30.1471H153.551ZM153.551 16.8676H156.502V13.9167H153.551V16.8676ZM149.125 16.8676H146.174V19.8186H149.125V16.8676ZM149.125 12.4412V9.49019H146.174V12.4412H149.125ZM162.404 12.4412H165.355V9.49019H162.404V12.4412ZM162.404 30.1471H159.453V33.098H162.404V30.1471ZM171.257 30.1471H174.208V27.1961H171.257V30.1471ZM171.257 34.5735V37.5245H174.208V34.5735H171.257ZM153.551 8.0147H156.502V3.58823H153.551H150.6V8.0147H153.551ZM153.551 3.58823V6.53921H162.404V3.58823V0.637253H153.551V3.58823ZM162.404 3.58823H159.453V8.0147H162.404H165.355V3.58823H162.404ZM162.404 8.0147V5.06372H153.551V8.0147V10.9657H162.404V8.0147ZM144.699 34.5735H147.65V30.1471H144.699H141.748V34.5735H144.699ZM144.699 30.1471V33.098H153.551V30.1471V27.1961H144.699V30.1471ZM153.551 30.1471H156.502V16.8676H153.551H150.6V30.1471H153.551ZM153.551 16.8676V13.9167H149.125V16.8676V19.8186H153.551V16.8676ZM149.125 16.8676H152.076V12.4412H149.125H146.174V16.8676H149.125ZM149.125 12.4412V15.3922H162.404V12.4412V9.49019H149.125V12.4412ZM162.404 12.4412H159.453V30.1471H162.404H165.355V12.4412H162.404ZM162.404 30.1471V33.098H171.257V30.1471V27.1961H162.404V30.1471ZM171.257 30.1471H168.306V34.5735H171.257H174.208V30.1471H171.257ZM171.257 34.5735V31.6225H144.699V34.5735V37.5245H171.257V34.5735ZM175.684 34.5735H172.733V37.5245H175.684V34.5735ZM175.684 30.1471V27.1961H172.733V30.1471H175.684ZM197.816 30.1471V33.098H200.767V30.1471H197.816ZM197.816 25.7206H200.767V22.7696H197.816V25.7206ZM180.11 25.7206H177.159V28.6716H180.11V25.7206ZM180.11 21.2941H183.061V18.3431H180.11V21.2941ZM175.684 21.2941H172.733V24.2451H175.684V21.2941ZM175.684 16.8676V13.9167H172.733V16.8676H175.684ZM180.11 16.8676V19.8186H183.061V16.8676H180.11ZM180.11 12.4412V9.49019H177.159V12.4412H180.11ZM202.243 12.4412H205.194V9.49019H202.243V12.4412ZM202.243 16.8676V19.8186H205.194V16.8676H202.243ZM184.537 16.8676V13.9167H181.586V16.8676H184.537ZM184.537 21.2941H181.586V24.2451H184.537V21.2941ZM202.243 21.2941H205.194V18.3431H202.243V21.2941ZM202.243 25.7206H199.292V28.6716H202.243V25.7206ZM206.669 25.7206H209.62V22.7696H206.669V25.7206ZM206.669 30.1471V33.098H209.62V30.1471H206.669ZM202.243 30.1471V27.1961H199.292V30.1471H202.243ZM202.243 34.5735V37.5245H205.194V34.5735H202.243ZM175.684 34.5735H178.635V30.1471H175.684H172.733V34.5735H175.684ZM175.684 30.1471V33.098H197.816V30.1471V27.1961H175.684V30.1471ZM197.816 30.1471H200.767V25.7206H197.816H194.865V30.1471H197.816ZM197.816 25.7206V22.7696H180.11V25.7206V28.6716H197.816V25.7206ZM180.11 25.7206H183.061V21.2941H180.11H177.159V25.7206H180.11ZM180.11 21.2941V18.3431H175.684V21.2941V24.2451H180.11V21.2941ZM175.684 21.2941H178.635V16.8676H175.684H172.733V21.2941H175.684ZM175.684 16.8676V19.8186H180.11V16.8676V13.9167H175.684V16.8676ZM180.11 16.8676H183.061V12.4412H180.11H177.159V16.8676H180.11ZM180.11 12.4412V15.3922H202.243V12.4412V9.49019H180.11V12.4412ZM202.243 12.4412H199.292V16.8676H202.243H205.194V12.4412H202.243ZM202.243 16.8676V13.9167H184.537V16.8676V19.8186H202.243V16.8676ZM184.537 16.8676H181.586V21.2941H184.537H187.488V16.8676H184.537ZM184.537 21.2941V24.2451H202.243V21.2941V18.3431H184.537V21.2941ZM202.243 21.2941H199.292V25.7206H202.243H205.194V21.2941H202.243ZM202.243 25.7206V28.6716H206.669V25.7206V22.7696H202.243V25.7206ZM206.669 25.7206H203.718V30.1471H206.669H209.62V25.7206H206.669ZM206.669 30.1471V27.1961H202.243V30.1471V33.098H206.669V30.1471ZM202.243 30.1471H199.292V34.5735H202.243H205.194V30.1471H202.243ZM202.243 34.5735V31.6225H175.684V34.5735V37.5245H202.243V34.5735Z" fill="black" mask="url(#path-1-outside-1_1_2)"/>
</svg>
